<?xml version="1.0" encoding="UTF-8" standalone="no"?>
<!-- Created with Inkscape (http://www.inkscape.org/) -->

<svg
   version="1.1"
   id="svg1"
   width="158.63208"
   height="179.87341"
   viewBox="0 0 158.63208 179.87341"
   xml:space="preserve"
   xmlns="http://www.w3.org/2000/svg"
   xmlns:svg="http://www.w3.org/2000/svg"><defs
     id="defs1" /><g
     id="g1"
     style="display:inline;opacity:1"
     transform="translate(-2028.7625,-616.20759)"><path
       style="fill:#666666;stroke:#000000;stroke-width:2;stroke-dasharray:none"
       d="m 2140.6785,617.21484 c 0,0 5.2564,0.98859 10.4392,7.50314 5.2608,6.61261 36.495,137.60945 35.2321,145.8219 -1.1941,7.76522 -10.4391,18.26851 -19.8996,21.53075 -9.4605,3.26223 -69.6033,3.97766 -76.6626,1.63112 -9.6292,-3.20084 -60.0945,-119.94207 -60.0251,-135.70898 0.054,-12.30454 19.9236,-31.28504 23.0804,-32.37768 3.8178,-1.24085 25.1654,-3.84131 26.8678,-3.96749 28.0164,-2.07645 33.831,-2.32127 60.9678,-4.43276 z"
       id="path58" /><path
       style="fill:#ff2a2a;stroke:#000000;stroke-width:1;stroke-dasharray:none"
       d="m 2141.1239,618.9006 c 0.024,-0.0724 -15.594,19.89773 -21.0614,27.20563 -5.2022,6.95336 -80.6464,10.25344 -83.9656,6.80491 -2.3196,-2.40988 10.335,-19.7087 10.335,-19.7087 3.3612,-2.71872 6.659,-5.18329 9.8036,-7.03558 0,0 3.3356,-0.74921 4.6135,-0.57669 7.2655,1.82088 12.093,4.21191 16.205,10.55337 0.5324,0.82114 39.0416,-3.8638 39.0416,-3.8638 0,0 10.9571,-6.68957 11.4185,-8.88099 0.4613,-2.19141 5.8822,-4.15214 5.8822,-4.15214 z"
       id="path59" /><path
       style="fill:none;stroke:#000000;stroke-width:0.6;stroke-dasharray:none"
       d="m 2077.065,636.29891 c 0,0 -21.6939,1.79423 -25.16,-0.40777"
       id="path60" /><path
       style="fill:none;stroke:#000000;stroke-width:1;stroke-dasharray:none"
       d="m 2137.8183,623.19231 c 0,0 6.1225,0.38389 8.8954,8.37636 2.7729,7.99248 36.2544,146.10036 36.2544,146.10036"
       id="path61" /><path
       style="fill:none;stroke:#000000;stroke-width:0.5;stroke-dasharray:none"
       d="m 2119.1568,646.99673 c 0,0 5.9009,2.51424 7.1679,8.38626 1.2556,5.8191 42.0828,135.70897 42.0828,135.70897"
       id="path62" /></g></svg>
